<svg width="24" height="24" viewBox="0 0 24 24" fill="none" xmlns="http://www.w3.org/2000/svg">
<path d="M11.314 3.12099C11.7761 2.64707 12.3277 2.26962 12.9369 2.01055C13.546 1.75148 14.2005 1.61594 14.8625 1.61179C15.5244 1.60765 16.1805 1.73497 16.7929 1.98639C17.4052 2.23781 17.9615 2.60831 18.4296 3.07641C18.8976 3.54451 19.268 4.10088 19.5194 4.71325C19.7707 5.32562 19.8979 5.9818 19.8937 6.64373C19.8894 7.30566 19.7538 7.96015 19.4946 8.56926C19.2355 9.17836 18.858 9.72994 18.384 10.192L10.607 17.97C10.3293 18.2523 9.99841 18.4769 9.63349 18.6307C9.26856 18.7845 8.87679 18.8646 8.48077 18.8662C8.08476 18.8679 7.69233 18.7911 7.32613 18.6404C6.95992 18.4896 6.6272 18.2678 6.34713 17.9878C6.06707 17.7078 5.84522 17.3752 5.69437 17.009C5.54352 16.6428 5.46666 16.2504 5.46823 15.8544C5.46979 15.4584 5.54975 15.0666 5.70349 14.7016C5.85723 14.3367 6.08171 14.0058 6.36398 13.728L14.142 5.94999L15.556 7.36399L7.77798 15.142C7.68247 15.2342 7.60628 15.3446 7.55387 15.4666C7.50147 15.5886 7.47388 15.7198 7.47273 15.8526C7.47157 15.9854 7.49687 16.1171 7.54715 16.2399C7.59744 16.3628 7.67169 16.4745 7.76558 16.5684C7.85947 16.6623 7.97113 16.7365 8.09402 16.7868C8.21692 16.8371 8.3486 16.8624 8.48138 16.8612C8.61416 16.8601 8.74538 16.8325 8.86738 16.7801C8.98939 16.7277 9.09973 16.6515 9.19198 16.556L16.971 8.77799C17.2496 8.4994 17.4706 8.16865 17.6213 7.80464C17.7721 7.44063 17.8497 7.05049 17.8497 6.65649C17.8497 6.2625 17.7721 5.87235 17.6213 5.50835C17.4706 5.14434 17.2496 4.81359 16.971 4.53499C16.6924 4.2564 16.3616 4.0354 15.9976 3.88462C15.6336 3.73384 15.2435 3.65624 14.8495 3.65624C14.4555 3.65624 14.0653 3.73384 13.7013 3.88462C13.3373 4.0354 13.0066 4.2564 12.728 4.53499L4.94998 12.314C4.03919 13.257 3.53521 14.52 3.54661 15.831C3.558 17.142 4.08384 18.396 5.01088 19.3231C5.93792 20.2501 7.19199 20.776 8.50297 20.7874C9.81395 20.7988 11.077 20.2948 12.02 19.384L20.506 10.899L21.92 12.314L13.435 20.799C12.1222 22.1118 10.3416 22.8494 8.48498 22.8494C6.62837 22.8494 4.8478 22.1118 3.53498 20.799C2.22215 19.4862 1.48462 17.7056 1.48462 15.849C1.48462 13.9924 2.22215 12.2118 3.53498 10.899L11.314 3.12099Z" fill="#004799"/>
</svg>
