<svg width="44" height="44" viewBox="0 0 44 44" fill="none" xmlns="http://www.w3.org/2000/svg">
<path d="M21.9757 33.3339C20.7165 33.3339 19.4579 33.3263 18.1987 33.3339C15.5231 33.3531 13.591 31.3885 13.4606 29.1591C13.2522 25.5928 12.9702 22.0298 12.7172 18.4658C12.6609 17.6702 12.5889 16.8761 12.5372 16.08C12.526 15.91 12.4601 15.8655 12.2917 15.8693C11.8779 15.878 11.4626 15.8526 11.0498 15.8765C10.4123 15.9139 9.99697 15.4849 10 15.012C10 14.629 10.3357 14.1446 11.0406 14.1551C12.4007 14.1757 13.7613 14.1618 15.122 14.1609C16.0485 14.1609 16.5419 13.8205 16.831 12.989C16.942 12.6711 17.0582 12.3547 17.1753 12.0392C17.4796 11.2168 18.2494 10.6759 19.1759 10.6706C21.0597 10.6601 22.944 10.6601 24.8288 10.6706C25.7386 10.6797 26.5008 11.2063 26.8203 12.0201C26.9602 12.3791 27.0804 12.7448 27.2102 13.1067C27.4552 13.7889 27.9948 14.1599 28.7549 14.1599C30.1916 14.1599 31.6278 14.1599 33.0655 14.1599C33.2566 14.1578 33.4438 14.2118 33.6011 14.3143C33.7584 14.4169 33.8782 14.5629 33.9438 14.7324C34.0701 15.0675 33.9849 15.4447 33.674 15.6582C33.4968 15.7753 33.2897 15.8455 33.0741 15.8617C32.6202 15.8918 32.1613 15.877 31.7049 15.8684C31.5345 15.8655 31.4741 15.9129 31.463 16.0809C31.3173 18.2134 31.1668 20.3457 31.0116 22.4779C30.8473 24.7756 30.7023 27.0772 30.5106 29.3741C30.324 31.613 28.3254 33.3124 25.9019 33.332C24.5945 33.3425 23.2851 33.3339 21.9757 33.3339ZM14.3653 15.876C14.3574 15.9262 14.3526 15.9767 14.3511 16.0273C14.4154 16.9423 14.4803 17.8571 14.5459 18.7717C14.6791 20.6498 14.8119 22.5278 14.9445 24.4056C15.0565 25.9892 15.1564 27.5732 15.2847 29.1553C15.3988 30.5598 16.5642 31.6005 18.0536 31.6106C20.665 31.6272 23.2763 31.628 25.8877 31.613C27.4653 31.6029 28.6089 30.5694 28.7199 29.0912C28.8437 27.4449 28.9512 25.7977 29.0683 24.1505C29.2485 21.62 29.4289 19.0897 29.6094 16.5596C29.6247 16.3409 29.6094 16.1207 29.6094 15.876H14.3653ZM25.6808 14.1498C25.483 13.6127 25.2984 13.1101 25.1128 12.6075C25.0509 12.439 24.9099 12.3815 24.7365 12.3815C24.4662 12.3815 24.1959 12.3815 23.9251 12.3815C22.3961 12.3815 20.8672 12.3815 19.3382 12.3815C19.0887 12.3815 18.9218 12.4576 18.8458 12.6994C18.7494 13.0043 18.6307 13.3035 18.5212 13.6051C18.4578 13.7808 18.3929 13.9564 18.3219 14.1518L25.6808 14.1498Z" fill="#004799"/>
<path d="M25.3736 23.7517C25.3736 24.7 25.3777 25.6488 25.3736 26.5975C25.3706 27.0892 25.0425 27.453 24.58 27.5013C24.012 27.5612 23.5703 27.1849 23.5657 26.6205C23.5601 25.2735 23.5657 23.9259 23.5657 22.5788C23.5657 22.0207 23.5657 21.4625 23.5657 20.9034C23.5657 20.3442 23.9278 19.9819 24.4638 19.9838C24.9999 19.9857 25.3736 20.3572 25.3736 20.9053C25.3787 21.8541 25.3736 22.8029 25.3736 23.7517Z" fill="#004799"/>
<path d="M20.4347 23.7584C20.4347 24.723 20.4387 25.6876 20.4347 26.6517C20.4321 27.0476 20.207 27.3386 19.8408 27.4583C19.4747 27.578 19.0609 27.4899 18.8423 27.1888C18.7214 27.0272 18.6511 26.8368 18.6395 26.6393C18.6243 24.7106 18.6253 22.7819 18.6314 20.8527C18.6314 20.3472 19.0315 19.9834 19.5442 19.9862C20.0569 19.9891 20.4347 20.3457 20.4387 20.8651C20.4458 21.8297 20.4387 22.7943 20.4387 23.7584H20.4347Z" fill="#004799"/>
</svg>
