<svg width="44" height="44" viewBox="0 0 44 44" fill="none" xmlns="http://www.w3.org/2000/svg">
<path d="M31.9998 14.605C32.0096 15.6883 31.7142 16.3777 31.1387 16.9553C27.7757 20.3155 19.7169 28.3827 17.2105 30.8624C16.9885 31.082 16.6532 31.2342 16.3446 31.31C15.3717 31.5493 14.3871 31.7399 13.4064 31.9438C12.311 32.1718 11.831 31.702 12.053 30.6172C12.2544 29.6363 12.4469 28.653 12.6856 27.6805C12.7615 27.3708 12.9042 27.03 13.1233 26.8094C15.6189 24.2922 23.6889 16.2034 27.0854 12.8476C27.9928 11.9514 29.1148 11.7806 30.2776 12.2656C31.408 12.7368 31.9619 13.6512 31.9998 14.605ZM14.0981 29.8579C15.3259 29.8491 15.9645 29.592 16.7246 28.8322C18.4832 27.0743 24.9463 20.6139 26.7029 18.8555C26.8624 18.696 27.015 18.529 27.1051 18.4345L25.6174 16.8588C25.4697 17.0006 25.3151 17.1395 25.1689 17.2852C23.4536 18.9958 17.0811 25.4587 15.3018 27.1053C14.4683 27.8784 14.234 28.7884 14.0981 29.8579ZM28.5383 17.0755C28.8878 16.6963 29.6834 15.9173 29.9877 15.5293C30.3436 15.0753 30.2781 14.5011 29.8808 14.1116C29.4835 13.7221 28.9119 13.6754 28.4575 14.0264C28.0671 14.3283 27.2691 15.0999 26.9087 15.4086L28.5383 17.0755Z" fill="#004799"/>
</svg>
