<svg width="28" height="16" viewBox="0 0 28 16" fill="none" xmlns="http://www.w3.org/2000/svg">
<path d="M7.89258 6.96496L23.6426 6.96497C24.1326 6.96497 24.5176 7.34997 24.5176 7.83997C24.5176 8.32997 24.1326 8.71497 23.6426 8.71497L7.89258 8.71496C7.40258 8.71496 7.01758 8.32996 7.01758 7.83996C7.01758 7.34996 7.40258 6.96496 7.89258 6.96496Z" fill="#004799"/>
<path d="M12.2676 0.839999C12.3823 0.8386 12.4961 0.861233 12.6016 0.906442C12.7071 0.95165 12.8019 1.01843 12.8801 1.1025C13.2301 1.4525 13.2301 1.995 12.8801 2.345L7.36758 7.8575L12.8801 13.37C13.2301 13.72 13.2301 14.2625 12.8801 14.6125C12.5301 14.9625 11.9876 14.9625 11.6376 14.6125L5.51258 8.4875C5.16258 8.1375 5.16258 7.595 5.51258 7.245L11.6376 1.12C11.8126 0.945 12.0401 0.8575 12.2501 0.8575L12.2676 0.839999Z" fill="#004799"/>
</svg>
