<svg width="95" height="26" viewBox="0 0 95 26" fill="none" xmlns="http://www.w3.org/2000/svg">
<path d="M94.9868 13.0116C94.9868 16.5348 94.9677 20.0586 94.9984 23.5818C95.0014 23.8261 94.955 24.0686 94.8621 24.2948C94.7692 24.5211 94.6316 24.7266 94.4573 24.8993C94.2831 25.072 94.0758 25.2083 93.8476 25.3003C93.6195 25.3923 93.3751 25.438 93.1288 25.4348C86.0678 25.4159 79.0069 25.4257 71.9459 25.4245C70.8002 25.4245 70.0836 24.7203 70.0836 23.5904C70.0836 16.533 70.0836 9.47577 70.0836 2.41879C70.0836 1.28397 70.7971 0.576772 71.9379 0.576163C78.9989 0.576163 86.0598 0.585301 93.1208 0.565199C93.3695 0.561882 93.6163 0.608235 93.8466 0.701499C94.0769 0.794763 94.2859 0.93303 94.4612 1.10807C94.6365 1.28312 94.7745 1.49136 94.867 1.72041C94.9595 1.94945 95.0046 2.19462 94.9997 2.44132C94.9659 5.96454 94.9868 9.48775 94.9868 13.0116ZM83.5971 11.4656L83.5357 11.4327C83.5357 11.1087 83.5197 10.7834 83.5406 10.4581C83.5596 10.1584 83.4319 10.0713 83.1464 10.0743C82.1745 10.0853 81.2025 10.078 80.2299 10.078C79.6878 10.078 79.6878 10.078 79.6878 10.6262C79.6878 14.0893 79.6878 17.552 79.6878 21.0143C79.6878 21.4809 79.6878 21.4809 80.1642 21.4815H83.0813C83.5357 21.4815 83.5363 21.4815 83.5369 21.0217C83.5369 18.9506 83.532 16.8796 83.5455 14.8085C83.551 13.8948 84.2891 13.0682 85.1966 12.9159C86.2483 12.7393 87.0815 13.2845 87.2878 14.3169C87.3706 14.7141 87.415 15.1181 87.4205 15.5236C87.4348 17.3916 87.4348 19.2596 87.4205 21.1276C87.4205 21.4164 87.5181 21.4931 87.7889 21.4895C88.8222 21.4791 89.8556 21.4755 90.8889 21.4895C91.2058 21.4943 91.2868 21.3841 91.285 21.0826C91.2739 19.0213 91.285 16.96 91.2733 14.8987C91.2736 14.4322 91.2325 13.9667 91.1505 13.5074C90.7489 11.3322 89.4817 10.0847 87.3934 9.85262C86.0426 9.70339 84.8361 10.0506 83.9035 11.1007C83.7966 11.2183 83.6984 11.3432 83.5971 11.4656ZM77.6499 15.7758C77.6499 13.9886 77.6456 12.202 77.6548 10.4155C77.6548 10.1627 77.5726 10.0762 77.3227 10.078C76.2682 10.0861 75.2144 10.0861 74.1612 10.078C73.8941 10.078 73.7854 10.1535 73.786 10.4435C73.7954 14.0069 73.7954 17.5705 73.786 21.1343C73.786 21.4024 73.8763 21.4876 74.1403 21.4852C75.1841 21.4748 76.2279 21.473 77.2717 21.4852C77.5633 21.4895 77.6579 21.4011 77.6561 21.1051C77.6438 19.3289 77.6499 17.552 77.6499 15.7758ZM75.7306 4.68963C75.6563 4.68963 75.5642 4.68475 75.4727 4.68963C74.6818 4.73653 74.0893 5.09713 73.7535 5.81347C73.4004 6.56331 73.495 7.28026 74.0236 7.9162C74.5885 8.59416 75.3493 8.75131 76.1837 8.61487C77.1851 8.45101 77.8685 7.68899 77.8986 6.75824C77.9373 5.48454 76.9346 4.59217 75.7306 4.68902V4.68963Z" fill="white"/>
<path d="M66.2497 21.4182C66.1853 21.4287 66.1203 21.435 66.055 21.4371C65.1132 21.4371 64.1719 21.4334 63.2306 21.4413C63.0256 21.4413 62.947 21.3871 62.9365 21.1715C62.9138 20.7086 62.8579 20.2474 62.8137 19.7339C62.7644 19.7701 62.7188 19.8109 62.6774 19.8558C61.6686 21.3177 60.2061 21.8233 58.5145 21.6759C56.4116 21.4931 55.0006 20.2925 54.2552 18.3865C53.4699 16.3764 53.535 14.3474 54.4591 12.3799C55.6582 9.82704 58.8713 8.64959 61.3358 9.86115C61.7368 10.0579 62.0757 10.3783 62.4545 10.653V5.41449H66.2509L66.2497 21.4182ZM62.4742 15.4237H62.4484C62.4484 15.0887 62.4588 14.7537 62.4484 14.4193C62.4109 13.4447 61.7669 12.5864 60.8907 12.3324C59.8506 12.0278 58.7779 12.3482 58.2376 13.2211C57.362 14.6361 57.335 16.1328 58.0866 17.5996C58.5698 18.5437 59.6013 18.9396 60.6752 18.7271C61.6023 18.5443 62.2796 17.7878 62.4036 16.7596C62.4545 16.3173 62.4509 15.869 62.4742 15.4237Z" fill="white"/>
<path d="M42.8724 21.4383H42.504C41.2146 21.4383 39.9252 21.4286 38.6358 21.4456C38.3392 21.4493 38.1814 21.3482 38.0334 21.1015C37.1923 19.7005 36.3333 18.3031 35.4792 16.9064C35.427 16.8205 35.3656 16.7401 35.284 16.6207C34.972 17.0099 34.67 17.3754 34.3851 17.7537C34.3329 17.8231 34.3464 17.9474 34.3458 18.0461C34.3433 19.0519 34.3433 20.0572 34.3458 21.0619V21.4146H30.5942V5.40353H34.3384V14.3992C34.867 13.6506 35.3417 12.9702 35.8249 12.2946C36.399 11.4918 36.9755 10.6908 37.5619 9.89648C37.6368 9.79476 37.7743 9.67233 37.8836 9.67111C39.3155 9.65588 40.7473 9.66075 42.2504 9.66075C42.162 9.77649 42.111 9.85446 42.049 9.92268C40.7516 11.345 39.4579 12.7698 38.1501 14.1823C37.9659 14.3803 37.9727 14.5052 38.1225 14.7141C39.6685 16.8741 41.2082 19.0383 42.7416 21.2068C42.7803 21.2611 42.8079 21.3232 42.8724 21.4383Z" fill="white"/>
<path d="M53.0028 16.7248H45.1922C45.2333 17.3754 45.5323 17.8621 46.0297 18.233C46.7757 18.7898 47.6506 18.9427 48.5507 18.9542C49.5852 18.9773 50.6169 18.8406 51.6091 18.5492C51.7141 18.5175 51.8221 18.4974 51.9609 18.4639C52.126 19.2868 52.2869 20.0884 52.4594 20.9516C51.9965 21.0886 51.5477 21.2562 51.0853 21.353C49.4416 21.7069 47.7863 21.8251 46.1248 21.4791C43.414 20.9144 41.8164 19.0633 41.5874 16.3319C41.4511 14.7043 41.7857 13.1724 42.7392 11.8244C44.0065 10.0299 45.8141 9.32023 47.968 9.38784C50.6831 9.47312 52.4883 11.0709 53.0028 13.8223C53.1766 14.7821 53.1766 15.765 53.0028 16.7248ZM49.5921 14.1713C49.6271 13.0597 48.999 11.8761 47.6377 11.8122C46.3367 11.7513 45.2658 12.7527 45.1744 14.1713H49.5921Z" fill="white"/>
<path d="M17.5167 10.1688H21.2683V11.5972L21.3297 11.6166C21.4273 11.4948 21.5237 11.3681 21.6238 11.2469C22.5288 10.1505 23.7279 9.7984 25.1021 9.90256C27.0877 10.0536 28.5147 11.3645 28.864 13.3935C28.9579 13.9534 29.0066 14.5199 29.0095 15.0875C29.0267 17.0672 29.0163 19.0468 29.0163 21.0265V21.4127H25.2427V21.0704C25.2427 19.2125 25.2513 17.3547 25.2359 15.4974C25.2306 15.0819 25.1816 14.6681 25.0898 14.2627C24.9381 13.5829 24.5525 13.0713 23.8317 12.9141C23.0716 12.7484 22.3888 12.9141 21.8442 13.4976C21.4279 13.9454 21.2603 14.4784 21.2633 15.0857C21.2726 17.0653 21.267 19.045 21.267 21.0241V21.4115H17.5149L17.5167 10.1688Z" fill="white"/>
<path d="M0 5.40231H3.77977V5.80129C3.77977 9.74968 3.77711 13.6981 3.77179 17.6465C3.77179 17.9632 3.86266 18.0333 4.16659 18.0308C6.11972 18.0174 8.07346 18.0241 10.0266 18.0241H10.4343V21.4219C10.2998 21.428 10.1807 21.4377 10.0616 21.4377H0.395415C0.00122814 21.4377 0.000614598 21.4377 0.000614598 21.0375C0.000614598 15.9525 0.000614598 10.8672 0.000614598 5.7818L0 5.40231Z" fill="white"/>
<path d="M15.7128 10.1481V21.417H11.9385V21.0387C11.9385 17.5368 11.9422 14.0337 11.9318 10.5343C11.9318 10.2346 11.9932 10.1328 12.3174 10.1395C13.3292 10.1621 14.3435 10.1481 15.3548 10.1481H15.7128Z" fill="white"/>
<path d="M13.8222 8.61792C12.3265 8.61426 11.3908 7.38625 11.8359 6.01205C12.1429 5.07034 13.1867 4.55318 14.3724 4.7676C15.1454 4.90831 15.6777 5.34932 15.892 6.09977C16.1155 6.88372 15.946 7.59214 15.3044 8.13853C14.8808 8.49792 14.3693 8.62523 13.8222 8.61792Z" fill="white"/>
</svg>
