<svg width="28" height="16" viewBox="0 0 28 16" fill="none" xmlns="http://www.w3.org/2000/svg">
<path d="M21.875 8.75H6.125C5.635 8.75 5.25 8.365 5.25 7.875C5.25 7.385 5.635 7 6.125 7H21.875C22.365 7 22.75 7.385 22.75 7.875C22.75 8.365 22.365 8.75 21.875 8.75Z" fill="#004799"/>
<path d="M17.5 14.875C17.3852 14.8764 17.2715 14.8537 17.166 14.8085C17.0605 14.7633 16.9656 14.6965 16.8875 14.6125C16.5375 14.2625 16.5375 13.72 16.8875 13.37L22.4 7.85747L16.8875 2.34497C16.5375 1.99497 16.5375 1.45247 16.8875 1.10247C17.2375 0.752466 17.78 0.752466 18.13 1.10247L24.255 7.22747C24.605 7.57747 24.605 8.11997 24.255 8.46997L18.13 14.595C17.955 14.77 17.7275 14.8575 17.5175 14.8575L17.5 14.875Z" fill="#004799"/>
</svg>
