<svg width="120" height="120" viewBox="0 0 120 120" fill="none" xmlns="http://www.w3.org/2000/svg">
<circle cx="60" cy="60" r="60" fill="#B9D8FC"/>
<path d="M31.2808 87.9136L66.5085 87.9136L79.8008 74.6081L79.8008 30.9804C79.8008 30.3309 79.5428 29.708 79.0835 29.2487C78.6242 28.7895 78.0013 28.5314 77.3518 28.5314L31.2714 28.5314C30.6219 28.5314 29.999 28.7895 29.5397 29.2487C29.0805 29.708 28.8224 30.3309 28.8224 30.9804L28.8224 85.4646C28.8224 85.787 28.8861 86.1062 29.0098 86.4039C29.1334 86.7017 29.3147 86.9721 29.5431 87.1996C29.7715 87.4271 30.0426 87.6073 30.3408 87.7298C30.639 87.8524 30.9584 87.9148 31.2808 87.9136Z" fill="#0F66CC"/>
<path d="M81.4762 31.2442H46.2486L32.9563 44.5497V88.1773C32.9563 88.8268 33.2143 89.4497 33.6736 89.909C34.1329 90.3682 34.7558 90.6263 35.4053 90.6263H81.4857C82.1352 90.6263 82.7581 90.3682 83.2173 89.909C83.6766 89.4497 83.9346 88.8268 83.9346 88.1773V33.6931C83.9346 33.3707 83.871 33.0515 83.7473 32.7538C83.6237 32.456 83.4424 32.1856 83.214 31.9581C82.9856 31.7306 82.7145 31.5504 82.4163 31.4279C82.1181 31.3053 81.7986 31.2429 81.4762 31.2442Z" fill="#4D97ED"/>
<path d="M42.6712 44.5498C43.6205 44.5498 44.5309 44.1727 45.2021 43.5014C45.8734 42.8302 46.2505 41.9198 46.2505 40.9705V31.2443L32.9563 44.5498H42.6712Z" fill="#004799"/>
<path d="M46.8042 50.8492H45.6984C45.0742 50.8492 44.5681 51.3553 44.5681 51.9795V53.0853C44.5681 53.7096 45.0742 54.2156 45.6984 54.2156H46.8042C47.4285 54.2156 47.9345 53.7096 47.9345 53.0853V51.9795C47.9345 51.3553 47.4285 50.8492 46.8042 50.8492Z" fill="white"/>
<path d="M72.5336 50.8492H52.2712C51.6469 50.8492 51.1409 51.3553 51.1409 51.9795V53.0853C51.1409 53.7096 51.6469 54.2156 52.2712 54.2156H72.5336C73.1579 54.2156 73.6639 53.7096 73.6639 53.0853V51.9795C73.6639 51.3553 73.1579 50.8492 72.5336 50.8492Z" fill="white"/>
<path d="M46.8042 59.8427H45.6984C45.0742 59.8427 44.5681 60.3487 44.5681 60.9729V62.0788C44.5681 62.703 45.0742 63.2091 45.6984 63.2091H46.8042C47.4285 63.2091 47.9345 62.703 47.9345 62.0788V60.9729C47.9345 60.3487 47.4285 59.8427 46.8042 59.8427Z" fill="white"/>
<path d="M72.5336 59.8427H52.2712C51.6469 59.8427 51.1409 60.3487 51.1409 60.9729V62.0788C51.1409 62.703 51.6469 63.2091 52.2712 63.2091H72.5336C73.1579 63.2091 73.6639 62.703 73.6639 62.0788V60.9729C73.6639 60.3487 73.1579 59.8427 72.5336 59.8427Z" fill="white"/>
<path d="M46.8042 68.8342H45.6984C45.0742 68.8342 44.5681 69.3403 44.5681 69.9645V71.0703C44.5681 71.6946 45.0742 72.2006 45.6984 72.2006H46.8042C47.4285 72.2006 47.9345 71.6946 47.9345 71.0703V69.9645C47.9345 69.3403 47.4285 68.8342 46.8042 68.8342Z" fill="white"/>
<path d="M72.5336 68.8342H52.2712C51.6469 68.8342 51.1409 69.3403 51.1409 69.9645V71.0703C51.1409 71.6946 51.6469 72.2006 52.2712 72.2006H72.5336C73.1579 72.2006 73.6639 71.6946 73.6639 71.0703V69.9645C73.6639 69.3403 73.1579 68.8342 72.5336 68.8342Z" fill="white"/>
<path d="M79.7202 90.9548C87.3672 90.9548 93.5663 84.7556 93.5663 77.1086C93.5663 69.4616 87.3672 63.2625 79.7202 63.2625C72.0732 63.2625 65.874 69.4616 65.874 77.1086C65.874 84.7556 72.0732 90.9548 79.7202 90.9548Z" fill="#0BEBA8"/>
<path d="M87.5771 77.4267L79.998 70.9258C79.9239 70.8548 79.8237 70.8149 79.7192 70.8149C79.6146 70.8149 79.5144 70.8548 79.4403 70.9258L71.8635 77.4267C71.8085 77.4799 71.771 77.5475 71.7558 77.6211C71.7407 77.6947 71.7485 77.771 71.7783 77.8403C71.8081 77.9097 71.8586 77.9689 71.9234 78.0107C71.9881 78.0525 72.0643 78.0749 72.1423 78.0751H75.6949C75.7993 78.0751 75.8994 78.1148 75.9734 78.1856C76.0474 78.2564 76.0893 78.3525 76.0899 78.4529V83.0223C76.0899 83.0722 76.1001 83.1216 76.12 83.1677C76.1398 83.2139 76.1689 83.2557 76.2056 83.291C76.2423 83.3263 76.2858 83.3543 76.3337 83.3734C76.3817 83.3925 76.433 83.4024 76.4849 83.4024H82.9558C83.0601 83.4018 83.16 83.3615 83.2336 83.2903C83.3071 83.219 83.3484 83.1227 83.3484 83.0223V78.4529C83.349 78.3525 83.3909 78.2564 83.4649 78.1856C83.5389 78.1148 83.6391 78.0751 83.7434 78.0751H87.2983C87.3763 78.0749 87.4525 78.0525 87.5173 78.0107C87.582 77.9689 87.6325 77.9097 87.6623 77.8403C87.6922 77.771 87.7 77.6947 87.6848 77.6211C87.6696 77.5475 87.6322 77.4799 87.5771 77.4267Z" fill="white"/>
</svg>
